<?xml version="1.0" encoding="UTF-8"?>
<svg width="26px" height="27px" viewBox="0 0 26 27" version="1.1" xmlns="http://www.w3.org/2000/svg" xmlns:xlink="http://www.w3.org/1999/xlink">
    <!-- Generator: Sketch 52.6 (67491) - http://www.bohemiancoding.com/sketch -->
    <title>EmailSMI</title>
    <desc>Created with Sketch.</desc>
    <defs>
        <polygon id="path-1" points="0 0 26 0 26 27 0 27"></polygon>
    </defs>
    <g id="Development" stroke="none" stroke-width="1" fill="none" fill-rule="evenodd">
        <g id="iPad-Pro" transform="translate(-362.000000, -970.000000)">
            <g id="EmailSMI" transform="translate(362.000000, 970.000000)">
                <mask id="mask-2" fill="white">
                    <use xlink:href="#path-1"></use>
                </mask>
                <g id="Clip-2"></g>
                <path d="M16.482005,12.382126 C16.482005,10.4790971 15.1880271,9.21041115 13.5944887,9.21041115 C10.7780021,9.21041115 8.6687255,12.382126 8.6687255,15.0314407 C8.6687255,16.9313601 9.7804965,18.4239318 11.741537,18.4239318 C14.5209645,18.4239318 16.482005,14.8790741 16.482005,12.382126 Z M23.483074,21.0328228 C24.0760185,21.0328228 24.3724908,21.70448 24.0019005,22.1522515 C21.5590925,25.2120235 17.8531892,27 13.7427248,27 C5.92635705,27 0,21.8537372 0,13.5015548 C0,5.40746286 6.03753415,0 13.5944887,0 C20.147761,0 26,4.51191984 26,11.1134401 C26,18.2000461 20.0026131,21.4837038 17.1861266,21.4837038 C16.2225918,21.4837038 15.407293,20.9613037 15.113909,19.9880226 C15.0367027,19.7268225 14.7433187,19.6553035 14.5209645,19.8387654 C13.2609574,20.998618 12.0009502,21.4837038 10.9262383,21.4837038 C7.81636774,21.4837038 5.40753059,18.7597605 5.40753059,15.513417 C5.40753059,10.85224 8.5575484,6.11643441 13.4091935,6.11643441 C14.9286138,6.11643441 16.2225918,6.6761488 17.1861266,7.9790395 C17.4084808,8.20603478 17.7790711,8.1314062 17.8531892,7.83289186 L17.9273073,7.57169181 C18.0755434,7.01197743 18.5943699,6.6388345 19.1471671,6.6388345 L20.1137902,6.6388345 C20.5554104,6.6388345 20.8518826,7.08660601 20.7437938,7.49706323 L18.5202518,15.9985028 C18.2608386,16.9313601 18.1867205,17.3791316 18.1867205,17.677646 C18.1867205,17.9761603 18.2206913,18.6478176 18.8537831,18.6478176 C21.003207,18.6478176 23.4089559,15.4761027 23.4089559,11.6731544 C23.4089559,5.85523437 18.998931,2.60889094 13.5574296,2.60889094 C7.33460031,2.60889094 3.03575246,7.31049177 3.03575246,13.5761833 C3.03575246,20.4015893 7.37165934,24.3911091 13.8909609,24.3911091 C16.7784773,24.3911091 19.5949638,23.3463089 21.6301223,21.4059657 C21.8524765,21.1820799 22.1890961,21.0328228 22.4824801,21.0328228 L23.483074,21.0328228 Z" id="Fill-1" fill="#FFFFFF" mask="url(#mask-2)"></path>
            </g>
        </g>
    </g>
</svg>