<?xml version="1.0" encoding="UTF-8"?>
<svg width="25px" height="25px" viewBox="0 0 25 25" version="1.1" xmlns="http://www.w3.org/2000/svg" xmlns:xlink="http://www.w3.org/1999/xlink">
    <!-- Generator: Sketch 52.6 (67491) - http://www.bohemiancoding.com/sketch -->
    <title>FacebookSMI</title>
    <desc>Created with Sketch.</desc>
    <g id="Development" stroke="none" stroke-width="1" fill="none" fill-rule="evenodd">
        <g id="iPad-Pro" transform="translate(-411.000000, -971.000000)" fill="#FFFFFF">
            <g id="FacebookSMI" transform="translate(411.000000, 971.000000)">
                <path d="M23.6184211,0 L1.38157895,0 C0.618553964,-4.67218052e-17 9.34436103e-17,0.618553964 0,1.38157895 L0,23.6184211 C9.34436103e-17,24.381446 0.618553964,25 1.38157895,25 L13.3552632,25 L13.3552632,15.3508772 L10.0877193,15.3508772 L10.0877193,11.5482456 L13.3377193,11.5482456 L13.3377193,8.77192982 C13.3377193,5.53947368 15.3070175,3.78070175 18.1885965,3.78070175 C19.1674888,3.78361017 20.1455139,3.83924633 21.1184211,3.94736842 L21.1184211,7.32017544 L19.127193,7.32017544 C17.5614035,7.32017544 17.2587719,8.06140351 17.2587719,9.15350877 L17.2587719,11.5657895 L21.0087719,11.5657895 L20.5219298,15.3508772 L17.2587719,15.3508772 L17.2587719,25 L23.6184211,25 C24.381446,25 25,24.381446 25,23.6184211 L25,1.38157895 C25,0.618553964 24.381446,4.67218052e-17 23.6184211,0 Z" id="Path"></path>
            </g>
        </g>
    </g>
</svg>