<?xml version="1.0" encoding="UTF-8"?>
<svg width="26px" height="24px" viewBox="0 0 26 24" version="1.1" xmlns="http://www.w3.org/2000/svg" xmlns:xlink="http://www.w3.org/1999/xlink">
    <!-- Generator: Sketch 52.6 (67491) - http://www.bohemiancoding.com/sketch -->
    <title>PhoneSMI</title>
    <desc>Created with Sketch.</desc>
    <defs>
        <polygon id="path-1" points="0 0 26 0 26 24 0 24"></polygon>
    </defs>
    <g id="Development" stroke="none" stroke-width="1" fill="none" fill-rule="evenodd">
        <g id="iPad-Pro" transform="translate(-310.000000, -971.000000)">
            <g id="PhoneSMI" transform="translate(310.000000, 971.000000)">
                <mask id="mask-2" fill="white">
                    <use xlink:href="#path-1"></use>
                </mask>
                <g id="Clip-2"></g>
                <path d="M25.9068137,17.8289821 C25.7469838,17.5636267 25.3205251,17.4044622 24.680837,17.0860112 C24.041149,16.7676823 20.8961081,15.2291333 20.3096967,15.0166292 C19.7234081,14.8044913 19.2968266,14.6984224 18.8704907,15.3349581 C18.444032,15.9716159 17.2180553,17.4044622 16.8448732,17.8289821 C16.4718139,18.25338 16.0986319,18.3067196 15.4589438,17.9881466 C14.8192558,17.6698177 12.7580387,16.9982511 10.3146783,14.8311001 C8.41304567,13.1444939 7.12912755,11.0616855 6.7559455,10.4247835 C6.3828862,9.78824777 6.71617215,9.44392037 7.03644582,9.12681205 C7.32431158,8.84180515 7.67625663,8.38384116 7.99603928,8.01241675 C8.31594469,7.6411144 8.42249798,7.37563688 8.63572733,6.95136107 C8.84895668,6.5267191 8.74228063,6.15541674 8.58245069,5.83708784 C8.42249798,5.51875893 7.14312188,2.38783299 6.61010988,1.11415118 C6.09072394,-0.125964507 5.56335877,0.0419881689 5.17078107,0.0223367294 C4.79809005,0.00390587618 4.37114032,0 3.94480437,0 C3.51834567,0 2.82525821,0.159164454 2.23884681,0.795822272 C1.65255816,1.43260215 0,2.97151736 0,6.10207712 C0,9.23300306 2.29212345,12.2573718 2.61202886,12.6818917 C2.93181151,13.1065337 7.12274417,19.5309677 13.5398796,22.2860751 C15.0661206,22.9415299 16.2577253,23.3328499 17.1867522,23.6259127 C18.719131,24.1101193 20.1136534,24.0417664 21.2158908,23.8779637 C22.4449364,23.6954861 25.0006197,22.3394147 25.5337544,20.853717 C26.0667664,19.3676532 26.0667664,18.0942155 25.9068137,17.8289821" id="Fill-1" fill="#FFFFFF" mask="url(#mask-2)"></path>
            </g>
        </g>
    </g>
</svg>